<svg width="213" height="26" viewBox="0 0 213 26" fill="none" xmlns="http://www.w3.org/2000/svg">
<g clip-path="url(#clip0_2552_670)">
<path d="M7.79405 8.83625L12.1595 2.27468C12.99 1.04985 14.076 0.45931 15.3963 0.45931C16.4823 0.45931 17.398 0.831133 18.1859 1.64039C18.9525 2.42778 19.3784 3.36827 19.3784 4.44C19.3784 5.22739 19.1441 5.92729 18.7395 6.58345L14.7787 12.4889L19.6126 18.8098C20.1237 19.4223 20.3366 20.1659 20.3366 21.0189C20.3366 22.1344 19.9746 23.0749 19.208 23.8623C18.4414 24.6496 17.5257 25.0871 16.4184 25.0871C15.2259 25.0871 14.3315 24.7153 13.6927 23.906L7.77276 16.3164V20.5377C7.77276 21.7626 7.58111 22.6374 7.17651 23.3373C6.45249 24.5622 5.34516 25.1527 3.93971 25.1527C2.66203 25.1527 1.66118 24.7371 0.979746 23.8404C0.340905 22.8999 0.0214844 21.8282 0.0214844 20.4721V4.96492C0.0214844 3.69635 0.340905 2.62463 1.02234 1.77162C1.68247 0.940492 2.68332 0.45931 3.91842 0.45931C5.15351 0.45931 6.06918 0.91862 6.83579 1.77162C7.28298 2.23093 7.55981 2.75586 7.64499 3.21517C7.73017 3.54325 7.73017 4.11192 7.73017 4.94305V8.83625H7.77276H7.79405ZM29.5785 5.42423V20.4502C29.5785 21.7626 29.2591 22.8343 28.5777 23.6873C27.8963 24.6278 26.8954 25.0871 25.6603 25.0871C24.5317 25.0871 23.5734 24.6715 22.7855 23.7748C22.1467 23.0749 21.7847 21.9594 21.7847 20.4502V5.42423C21.7847 3.7401 22.1041 2.51527 22.7855 1.77162C23.5521 0.874876 24.5104 0.45931 25.7029 0.45931C26.8954 0.45931 27.8537 0.874876 28.5777 1.72788C29.2591 2.51527 29.5785 3.7401 29.5785 5.42423ZM43.6118 0C46.4865 0 49.1271 0.984236 51.5334 2.95271C53.4073 4.50561 54.3656 6.12413 54.3656 7.83014C54.3656 9.22995 53.7693 10.3673 52.6407 11.1547C52.0019 11.614 51.2779 11.8108 50.4899 11.8108C49.8511 11.8108 49.2549 11.6796 48.6586 11.3515C48.4244 11.2203 47.8494 10.6079 46.8911 9.5799C46.0181 8.59566 44.8894 8.09261 43.5692 8.09261C42.2489 8.09261 41.2055 8.55192 40.3324 9.44867C39.4593 10.3892 39.0121 11.5046 39.0121 12.8169C39.0121 14.1293 39.4593 15.2447 40.3324 16.1852C41.2055 17.1257 42.2915 17.5413 43.5692 17.5413C44.6126 17.5413 45.6135 17.1695 46.5291 16.4258C47.0828 15.8571 47.6577 15.3103 48.2114 14.7417C48.8077 14.2167 49.5743 13.9543 50.4899 13.9543C51.5334 13.9543 52.4491 14.3261 53.2796 15.0697C54.0462 15.8134 54.4721 16.7539 54.4721 17.8256C54.4721 19.3129 53.599 20.8221 51.9167 22.3093C49.553 24.4528 46.806 25.4808 43.6756 25.4808C41.7591 25.4808 39.9491 25.0652 38.2029 24.2122C36.0521 23.1405 34.3273 21.5876 33.0496 19.5316C31.7719 17.4757 31.1331 15.2228 31.1331 12.7513C31.1331 9.09871 32.4533 5.97103 35.0939 3.39015C37.415 1.18108 40.2472 0.0656157 43.6118 0.0218719V0ZM63.5649 8.83625L67.9303 2.27468C68.7608 1.04985 69.8468 0.45931 71.1671 0.45931C72.2531 0.45931 73.1688 0.831133 73.9567 1.64039C74.7233 2.42778 75.1492 3.36827 75.1492 4.44C75.1492 5.22739 74.915 5.92729 74.5104 6.58345L70.5496 12.4889L75.3835 18.8098C75.8945 19.4223 76.1075 20.1659 76.1075 21.0189C76.1075 22.1344 75.7455 23.0749 74.9789 23.8623C74.2123 24.6496 73.2966 25.0871 72.1893 25.0871C70.9968 25.0871 70.1024 24.7153 69.4635 23.906L63.5436 16.3164V20.5377C63.5436 21.7626 63.352 22.6374 62.9474 23.3373C62.2233 24.5622 61.116 25.1527 59.7106 25.1527C58.4329 25.1527 57.432 24.7371 56.7506 23.8404C56.1118 23.053 55.7497 21.9157 55.7497 20.6033V4.96492C55.7497 3.69635 56.0692 2.62463 56.7506 1.77162C57.5172 0.940492 58.4755 0.45931 59.7106 0.45931C60.9457 0.45931 61.8613 0.874876 62.6705 1.77162C63.1177 2.23093 63.3945 2.75586 63.501 3.21517C63.5862 3.54325 63.5862 4.11192 63.5862 4.94305V8.83625H63.5649Z" fill="#211F1F"/>
<path d="M80.9619 15.7259C81.835 15.7259 82.7294 16.0977 83.7302 16.907C84.9653 17.8912 85.7745 18.3505 86.243 18.3505C86.9244 18.3505 87.2438 17.9787 87.2438 17.2788C87.2438 16.907 87.0522 16.5789 86.6476 16.2946C86.4133 16.1633 85.2847 15.6822 83.134 14.9385C79.6629 13.6699 77.938 11.3734 77.938 7.96138C77.938 5.38049 78.8537 3.36827 80.6638 1.92473C82.3035 0.656157 84.2626 0 86.6263 0C88.6706 0 90.4593 0.524926 91.95 1.48729C93.4619 2.47153 94.2285 3.78384 94.2285 5.38049C94.2285 6.32098 93.9517 7.10837 93.3554 7.76453C92.7592 8.42069 92.0351 8.70502 91.1195 8.70502C90.1612 8.70502 89.1178 8.24571 87.9253 7.30522C87.2012 6.73655 86.6476 6.40847 86.2856 6.40847C85.6467 6.40847 85.3273 6.73655 85.3273 7.34896C85.3273 7.96138 86.0939 8.50817 87.691 8.98936C89.8844 9.68926 91.5241 10.5423 92.6953 11.5702C94.2924 12.9263 95.059 14.8073 95.059 17.2351C95.059 19.9034 94.1859 21.9594 92.4185 23.4467C90.7788 24.8465 88.628 25.5026 85.9875 25.5026C83.3469 25.5026 81.1535 24.8027 79.4287 23.3592C78.0658 22.2 77.3418 20.8877 77.3418 19.3348C77.3418 18.3068 77.6612 17.4538 78.3427 16.7539C79.0667 16.0977 79.8972 15.7259 80.898 15.7259H80.9619ZM101.788 8.09261H99.7438C98.6152 8.09261 97.6569 7.76453 96.9116 7.15211C96.145 6.45221 95.7191 5.55547 95.7191 4.39625C95.7191 3.69635 95.9108 3.0402 96.2728 2.42778C96.6348 1.77162 97.1459 1.35606 97.7208 1.07172C98.3171 0.787389 99.7225 0.656157 101.958 0.656157H109.795C111.711 0.656157 112.989 0.787389 113.522 1.02798C114.16 1.31231 114.65 1.72788 115.033 2.38404C115.395 3.0402 115.63 3.69635 115.63 4.39625C115.63 5.51172 115.225 6.45221 114.352 7.26147C113.756 7.83014 112.755 8.15822 111.349 8.15822H109.582V20.2315C109.582 21.5438 109.348 22.5718 108.943 23.2717C108.219 24.4965 107.112 25.0871 105.749 25.0871C104.386 25.0871 103.279 24.5184 102.512 23.4467C102.065 22.7468 101.788 21.7188 101.788 20.319V8.09261ZM120.677 21.7626C120.315 22.6593 119.953 23.3592 119.548 23.7748C118.781 24.6715 117.823 25.0871 116.673 25.0871C115.31 25.0871 114.203 24.5184 113.479 23.4029C113.032 22.7468 112.797 21.9594 112.797 21.1064C112.797 20.4065 112.989 19.7066 113.309 19.0067L120.698 2.86522C121.422 1.26857 122.614 0.524926 124.297 0.524926C125.979 0.524926 127.214 1.31231 127.938 2.95271L135.412 19.1817C135.732 19.8378 135.86 20.494 135.86 21.1064C135.86 22.0469 135.54 22.878 134.944 23.6435C134.177 24.6278 133.177 25.0871 131.941 25.0871C130.941 25.0871 130.11 24.759 129.429 24.1466C128.918 23.6873 128.428 22.878 127.917 21.8063H120.677V21.7626ZM153.044 15.5291L154.876 18.5693C155.387 19.4004 155.642 20.2534 155.642 21.1501C155.642 22.2656 155.28 23.2061 154.514 23.9497C153.747 24.6934 152.832 25.0652 151.724 25.0652C150.319 25.0652 149.254 24.4528 148.53 23.2498L145.293 17.7819V21.0626C145.293 22.1781 144.931 23.1186 144.207 23.906C143.483 24.6934 142.567 25.0871 141.481 25.0871C140.161 25.0871 139.118 24.6278 138.436 23.5998C137.797 22.7687 137.521 21.5876 137.521 20.1878V5.24926C137.521 2.16532 139.118 0.656157 142.355 0.656157H147.316C148.956 0.656157 150.468 1.11547 151.831 2.0997C153.236 3.08394 154.237 4.30877 154.876 5.8398C155.387 7.02088 155.6 8.18009 155.6 9.33931C155.6 11.5484 154.727 13.6043 153.044 15.5072V15.5291ZM162.286 8.09261H160.242C159.092 8.09261 158.155 7.76453 157.41 7.15211C156.643 6.45221 156.217 5.55547 156.217 4.39625C156.217 3.69635 156.409 3.0402 156.771 2.42778C157.133 1.77162 157.644 1.35606 158.219 1.07172C158.815 0.787389 160.221 0.656157 162.457 0.656157H170.293C172.21 0.656157 173.487 0.787389 174.02 1.02798C174.659 1.31231 175.17 1.72788 175.532 2.38404C175.894 3.0402 176.128 3.69635 176.128 4.39625C176.128 5.51172 175.723 6.45221 174.85 7.26147C174.254 7.83014 173.253 8.15822 171.848 8.15822H170.08V20.2315C170.08 21.5438 169.846 22.5718 169.441 23.2717C168.717 24.4965 167.61 25.0871 166.247 25.0871C164.884 25.0871 163.777 24.5184 163.01 23.4467C162.563 22.7468 162.286 21.7188 162.286 20.319V8.09261ZM185.349 17.41H188.905C190.353 17.41 191.46 17.7381 192.184 18.3505C192.993 19.0942 193.462 20.0347 193.462 21.2158C193.462 22.3968 193.057 23.3592 192.184 24.0591C191.545 24.6278 190.459 24.8902 188.947 24.8902H182.878C181.473 24.8902 180.472 24.8027 179.918 24.5622C178.875 24.1466 178.194 23.3811 177.874 22.4187C177.64 21.7626 177.555 20.7346 177.555 19.291V6.08039C177.555 4.96492 177.597 4.26502 177.64 3.87133C177.768 3.12768 178.044 2.47153 178.556 1.90286C179.109 1.29044 179.833 0.91862 180.642 0.721773C181.047 0.634285 181.878 0.634285 183.113 0.634285H187.755C189.033 0.634285 189.757 0.634285 189.991 0.678029C190.8 0.765517 191.503 1.00611 192.035 1.42167C192.993 2.16532 193.441 3.10581 193.441 4.26502C193.441 5.53359 193.036 6.51783 192.205 7.21773C191.481 7.83014 190.481 8.11448 189.203 8.11448H185.37V9.75487H188.415C189.331 9.75487 190.055 9.99546 190.651 10.4985C191.29 11.0234 191.567 11.7233 191.567 12.642C191.567 14.5667 190.417 15.5509 188.159 15.5509H185.37V17.3663H185.327L185.349 17.41ZM210.349 15.5291L212.18 18.5693C212.691 19.4004 212.947 20.2534 212.947 21.1501C212.947 22.2656 212.584 23.2061 211.797 23.9497C211.03 24.6934 210.114 25.0652 209.028 25.0652C207.623 25.0652 206.558 24.4528 205.834 23.2498L202.597 17.7819V21.0626C202.597 22.1781 202.235 23.1186 201.511 23.906C200.787 24.6934 199.872 25.0871 198.786 25.0871C197.465 25.0871 196.422 24.6278 195.74 23.5998C195.102 22.7687 194.825 21.5876 194.825 20.1878V5.24926C194.825 2.16532 196.422 0.656157 199.659 0.656157H204.62C206.26 0.656157 207.772 1.11547 209.135 2.0997C210.54 3.08394 211.541 4.30877 212.18 5.8398C212.691 7.02088 212.904 8.18009 212.904 9.33931C212.904 11.5484 212.031 13.6043 210.349 15.5072V15.5291Z" fill="#2BDE73"/>
</g>
<defs>
<clipPath id="clip0_2552_670">
<rect width="212.947" height="25.5026" fill="white"/>
</clipPath>
</defs>
</svg>
