<svg width="167" height="20" viewBox="0 0 167 20" fill="none" xmlns="http://www.w3.org/2000/svg">
<g clip-path="url(#clip0_2232_198)">
<path d="M6.1121 6.92967L9.5356 1.78388C10.1869 0.823328 11.0386 0.360206 12.074 0.360206C12.9257 0.360206 13.6438 0.651801 14.2617 1.28645C14.8629 1.90395 15.1969 2.64151 15.1969 3.48199C15.1969 4.09949 15.0132 4.64837 14.6959 5.16295L11.5897 9.79417L15.3806 14.7513C15.7814 15.2316 15.9484 15.8148 15.9484 16.4837C15.9484 17.3585 15.6645 18.0961 15.0633 18.7136C14.4621 19.331 13.744 19.6741 12.8756 19.6741C11.9404 19.6741 11.239 19.3825 10.738 18.7479L6.0954 12.7959V16.1063C6.0954 17.0669 5.9451 17.753 5.6278 18.3019C5.06 19.2624 4.1916 19.7256 3.0894 19.7256C2.0874 19.7256 1.3025 19.3997 0.768102 18.6964C0.267102 17.9588 0.0166016 17.1184 0.0166016 16.0549V3.89365C0.0166016 2.8988 0.267102 2.05832 0.801502 1.38937C1.3192 0.737564 2.1041 0.360206 3.0727 0.360206C4.0413 0.360206 4.7594 0.720412 5.3606 1.38937C5.7113 1.74957 5.9284 2.16124 5.9952 2.52144C6.062 2.77873 6.062 3.2247 6.062 3.8765V6.92967H6.0954H6.1121ZM23.1962 4.25386V16.0377C23.1962 17.0669 22.9457 17.9074 22.4113 18.5763C21.8769 19.3139 21.092 19.6741 20.1234 19.6741C19.2383 19.6741 18.4868 19.3482 17.8689 18.6449C17.3679 18.0961 17.084 17.2213 17.084 16.0377V4.25386C17.084 2.9331 17.3345 1.97256 17.8689 1.38937C18.4701 0.686106 19.2216 0.360206 20.1568 0.360206C21.092 0.360206 21.8435 0.686106 22.4113 1.35506C22.9457 1.97256 23.1962 2.9331 23.1962 4.25386ZM34.2015 0C36.456 0 38.5268 0.77187 40.4139 2.31561C41.8835 3.53345 42.635 4.80274 42.635 6.14065C42.635 7.23842 42.1674 8.13036 41.2823 8.74786C40.7813 9.10806 40.2135 9.26244 39.5956 9.26244C39.0946 9.26244 38.627 9.15952 38.1594 8.90223C37.9757 8.79931 37.5248 8.31904 36.7733 7.51286C36.0886 6.74099 35.2035 6.34648 34.1681 6.34648C33.1327 6.34648 32.3144 6.70669 31.6297 7.40995C30.945 8.14751 30.5943 9.0223 30.5943 10.0515C30.5943 11.0806 30.945 11.9554 31.6297 12.693C32.3144 13.4305 33.1661 13.7564 34.1681 13.7564C34.9864 13.7564 35.7713 13.4648 36.4894 12.8816C36.9236 12.4357 37.3745 12.0069 37.8087 11.5609C38.2763 11.1492 38.8775 10.9434 39.5956 10.9434C40.4139 10.9434 41.132 11.235 41.7833 11.8182C42.3845 12.4014 42.7185 13.1389 42.7185 13.9794C42.7185 15.1458 42.0338 16.3293 40.7145 17.4957C38.8608 19.1767 36.7065 19.9828 34.2516 19.9828C32.7486 19.9828 31.3291 19.6569 29.9597 18.988C28.273 18.1475 26.9203 16.9297 25.9183 15.3173C24.9163 13.705 24.4153 11.9383 24.4153 10C24.4153 7.13551 25.4507 4.68268 27.5215 2.65866C29.3418 0.926243 31.5629 0.051458 34.2015 0.0171527V0ZM49.8494 6.92967L53.2729 1.78388C53.9242 0.823328 54.7759 0.360206 55.8113 0.360206C56.663 0.360206 57.3811 0.651801 57.999 1.28645C58.6002 1.90395 58.9342 2.64151 58.9342 3.48199C58.9342 4.09949 58.7505 4.64837 58.4332 5.16295L55.327 9.79417L59.1179 14.7513C59.5187 15.2316 59.6857 15.8148 59.6857 16.4837C59.6857 17.3585 59.4018 18.0961 58.8006 18.7136C58.1994 19.331 57.4813 19.6741 56.6129 19.6741C55.6777 19.6741 54.9763 19.3825 54.4753 18.7479L49.8327 12.7959V16.1063C49.8327 17.0669 49.6824 17.753 49.3651 18.3019C48.7973 19.2624 47.9289 19.7256 46.8267 19.7256C45.8247 19.7256 45.0398 19.3997 44.5054 18.6964C44.0044 18.0789 43.7205 17.187 43.7205 16.1578V3.89365C43.7205 2.8988 43.971 2.05832 44.5054 1.38937C45.1066 0.737564 45.8581 0.360206 46.8267 0.360206C47.7953 0.360206 48.5134 0.686106 49.148 1.38937C49.4987 1.74957 49.7158 2.16124 49.7993 2.52144C49.8661 2.77873 49.8661 3.2247 49.8661 3.8765V6.92967H49.8494Z" fill="white"/>
<path d="M63.4933 12.3328C64.178 12.3328 64.8794 12.6244 65.6643 13.259C66.6329 14.0309 67.2675 14.3911 67.6349 14.3911C68.1693 14.3911 68.4198 14.0995 68.4198 13.5506C68.4198 13.259 68.2695 13.0017 67.9522 12.7787C67.7685 12.6758 66.8834 12.2985 65.1967 11.7153C62.4746 10.7204 61.1219 8.91938 61.1219 6.24357C61.1219 4.21955 61.84 2.64151 63.2595 1.50943C64.5454 0.51458 66.0818 0 67.9355 0C69.5387 0 70.9415 0.411664 72.1105 1.16638C73.2962 1.93825 73.8974 2.96741 73.8974 4.21955C73.8974 4.95712 73.6803 5.57461 73.2127 6.08919C72.7451 6.60377 72.1773 6.82676 71.4592 6.82676C70.7077 6.82676 69.8894 6.46655 68.9542 5.72899C68.3864 5.28302 67.9522 5.02573 67.6683 5.02573C67.1673 5.02573 66.9168 5.28302 66.9168 5.76329C66.9168 6.24357 67.518 6.67238 68.7705 7.04974C70.4906 7.59863 71.7765 8.26758 72.695 9.07376C73.9475 10.1372 74.5487 11.6124 74.5487 13.5163C74.5487 15.6089 73.864 17.2213 72.4779 18.3877C71.192 19.4854 69.5053 20 67.4345 20C65.3637 20 63.6436 19.4511 62.2909 18.319C61.2221 17.4099 60.6543 16.3808 60.6543 15.163C60.6543 14.3568 60.9048 13.6878 61.4392 13.1389C62.007 12.6244 62.6583 12.3328 63.4432 12.3328H63.4933ZM79.8259 6.34648H78.2227C77.3376 6.34648 76.5861 6.08919 76.0016 5.60892C75.4004 5.06003 75.0664 4.35678 75.0664 3.44768C75.0664 2.8988 75.2167 2.38422 75.5006 1.90395C75.7845 1.38937 76.1853 1.06346 76.6362 0.84048C77.1038 0.617496 78.206 0.51458 79.9595 0.51458H86.1051C87.6081 0.51458 88.6101 0.617496 89.0276 0.806175C89.5286 1.02916 89.9127 1.35506 90.2133 1.86964C90.4972 2.38422 90.6809 2.8988 90.6809 3.44768C90.6809 4.32247 90.3636 5.06003 89.6789 5.69468C89.2113 6.14065 88.4264 6.39794 87.3242 6.39794H85.9381V15.8662C85.9381 16.8954 85.7544 17.7015 85.4371 18.2504C84.8693 19.211 84.0009 19.6741 82.9321 19.6741C81.8633 19.6741 80.9949 19.2281 80.3937 18.3877C80.043 17.8388 79.8259 17.0326 79.8259 15.9348V6.34648ZM94.6388 17.0669C94.3549 17.7702 94.071 18.319 93.7537 18.6449C93.1525 19.3482 92.401 19.6741 91.4992 19.6741C90.4304 19.6741 89.562 19.2281 88.9942 18.3533C88.6435 17.8388 88.4598 17.2213 88.4598 16.5523C88.4598 16.0034 88.6101 15.4545 88.8606 14.9057L94.6555 2.247C95.2233 0.994854 96.1585 0.411664 97.4778 0.411664C98.7971 0.411664 99.7657 1.02916 100.334 2.31561L106.195 15.0429C106.446 15.5575 106.546 16.072 106.546 16.5523C106.546 17.2899 106.295 17.9417 105.828 18.542C105.227 19.3139 104.442 19.6741 103.473 19.6741C102.688 19.6741 102.037 19.4168 101.502 18.9365C101.102 18.5763 100.718 17.9417 100.317 17.1012H94.6388V17.0669ZM120.023 12.1784L121.459 14.5626C121.86 15.2144 122.06 15.8834 122.06 16.5866C122.06 17.4614 121.776 18.199 121.175 18.7822C120.574 19.3654 119.856 19.6569 118.987 19.6569C117.885 19.6569 117.05 19.1767 116.482 18.2333L113.944 13.9451V16.518C113.944 17.3928 113.66 18.1304 113.092 18.7479C112.525 19.3654 111.806 19.6741 110.955 19.6741C109.919 19.6741 109.101 19.3139 108.567 18.5077C108.066 17.8559 107.849 16.9297 107.849 15.8319V4.11664C107.849 1.69811 109.101 0.51458 111.639 0.51458H115.53C116.816 0.51458 118.002 0.874786 119.071 1.64666C120.173 2.41852 120.958 3.37907 121.459 4.57976C121.86 5.506 122.027 6.41509 122.027 7.32419C122.027 9.0566 121.342 10.669 120.023 12.1612V12.1784ZM127.271 6.34648H125.667C124.766 6.34648 124.031 6.08919 123.446 5.60892C122.845 5.06003 122.511 4.35678 122.511 3.44768C122.511 2.8988 122.661 2.38422 122.945 1.90395C123.229 1.38937 123.63 1.06346 124.081 0.84048C124.549 0.617496 125.651 0.51458 127.404 0.51458H133.55C135.053 0.51458 136.055 0.617496 136.472 0.806175C136.973 1.02916 137.374 1.35506 137.658 1.86964C137.942 2.38422 138.126 2.8988 138.126 3.44768C138.126 4.32247 137.808 5.06003 137.124 5.69468C136.656 6.14065 135.871 6.39794 134.769 6.39794H133.383V15.8662C133.383 16.8954 133.199 17.7015 132.882 18.2504C132.314 19.211 131.446 19.6741 130.377 19.6741C129.308 19.6741 128.44 19.2281 127.838 18.3877C127.488 17.8388 127.271 17.0326 127.271 15.9348V6.34648ZM145.357 13.6535H148.146C149.281 13.6535 150.15 13.9108 150.717 14.3911C151.352 14.9743 151.719 15.7118 151.719 16.6381C151.719 17.5643 151.402 18.319 150.717 18.8679C150.216 19.3139 149.365 19.5197 148.179 19.5197H143.419C142.317 19.5197 141.532 19.4511 141.098 19.2624C140.28 18.9365 139.745 18.3362 139.495 17.5815C139.311 17.0669 139.244 16.2607 139.244 15.1286V4.76844C139.244 3.89365 139.278 3.34477 139.311 3.03602C139.411 2.45283 139.629 1.93825 140.029 1.49228C140.464 1.01201 141.031 0.720412 141.666 0.566038C141.983 0.497427 142.635 0.497427 143.603 0.497427H147.244C148.246 0.497427 148.814 0.497427 148.997 0.531732C149.632 0.600343 150.183 0.789022 150.601 1.11492C151.352 1.69811 151.703 2.43568 151.703 3.34477C151.703 4.33962 151.385 5.11149 150.734 5.66038C150.166 6.14065 149.381 6.36364 148.379 6.36364H145.373V7.65009H147.762C148.48 7.65009 149.047 7.83877 149.515 8.23328C150.016 8.64494 150.233 9.19383 150.233 9.91424C150.233 11.4237 149.331 12.1955 147.561 12.1955H145.373V13.6192H145.34L145.357 13.6535ZM164.963 12.1784L166.399 14.5626C166.799 15.2144 167 15.8834 167 16.5866C167 17.4614 166.716 18.199 166.098 18.7822C165.497 19.3654 164.779 19.6569 163.927 19.6569C162.825 19.6569 161.99 19.1767 161.422 18.2333L158.884 13.9451V16.518C158.884 17.3928 158.6 18.1304 158.032 18.7479C157.464 19.3654 156.746 19.6741 155.894 19.6741C154.859 19.6741 154.041 19.3139 153.506 18.5077C153.005 17.8559 152.788 16.9297 152.788 15.8319V4.11664C152.788 1.69811 154.041 0.51458 156.579 0.51458H160.47C161.756 0.51458 162.942 0.874786 164.011 1.64666C165.113 2.41852 165.898 3.37907 166.399 4.57976C166.799 5.506 166.967 6.41509 166.967 7.32419C166.967 9.0566 166.282 10.669 164.963 12.1612V12.1784Z" fill="white"/>
</g>
<defs>
<clipPath id="clip0_2232_198">
<rect width="167" height="20" fill="white"/>
</clipPath>
</defs>
</svg>
