<svg width="292" height="52" viewBox="0 0 292 52" fill="none" xmlns="http://www.w3.org/2000/svg">
<path fill-rule="evenodd" clip-rule="evenodd" d="M14.1665 10.3333H14.9998C15.4582 10.3333 15.8332 10.7 15.8332 11.1667V17C15.8332 18.375 14.7165 19.5 13.3332 19.5H6.6665C5.2915 19.5 4.1665 18.375 4.1665 17V11.1667C4.1665 10.7 4.5415 10.3333 4.99984 10.3333H5.83317V8.66667C5.83317 6.36667 7.69984 4.5 9.99984 4.5C12.2998 4.5 14.1665 6.36667 14.1665 8.66667V10.3333ZM9.99984 6.16667C8.62484 6.16667 7.49984 7.28333 7.49984 8.66667V10.3333H12.4998V8.66667C12.4998 7.28333 11.3748 6.16667 9.99984 6.16667ZM9.99982 16.5C10.8743 16.5 11.5832 15.7911 11.5832 14.9166C11.5832 14.0422 10.8743 13.3333 9.99982 13.3333C9.12537 13.3333 8.41648 14.0422 8.41648 14.9166C8.41648 15.7911 9.12537 16.5 9.99982 16.5Z" fill="#211F1F"/>
<path d="M33.888 18.096C30.752 18.096 28.592 15.808 28.592 12.4C28.592 8.992 30.704 6.704 34.032 6.704C36.624 6.704 38.512 8.24 38.848 10.608H36.944C36.608 9.184 35.536 8.32 33.984 8.32C31.856 8.32 30.48 10 30.48 12.4C30.48 14.8 31.824 16.48 33.968 16.48C35.696 16.48 37.088 15.504 37.184 13.696V13.424H34.08V11.872H38.944V18H37.52L37.36 16.496C36.816 17.296 35.664 18.096 33.888 18.096ZM40.6888 14.368V9.808H42.4168V14.176C42.4168 15.776 43.0568 16.592 44.3208 16.592C45.6328 16.592 46.4328 15.6 46.4328 13.904V9.808H48.1608V18H46.6408L46.4488 16.96C45.9368 17.584 45.1848 18.096 43.9208 18.096C42.1768 18.096 40.6888 17.168 40.6888 14.368ZM49.7836 12.304C49.9596 10.704 51.3356 9.712 53.3996 9.712C55.5756 9.712 56.8236 10.752 56.8236 12.688V15.968C56.8236 16.384 56.9996 16.496 57.3516 16.496H57.7036V18H56.7916C55.6716 18 55.2876 17.504 55.2876 16.688C54.7436 17.52 53.9116 18.096 52.5836 18.096C50.7916 18.096 49.5436 17.216 49.5436 15.696C49.5436 14.016 50.7596 13.072 53.0476 13.072H55.1116V12.576C55.1116 11.664 54.4556 11.104 53.3196 11.104C52.2956 11.104 51.6076 11.584 51.4796 12.304H49.7836ZM52.9676 14.352C51.8956 14.352 51.3036 14.752 51.3036 15.584C51.3036 16.272 51.8796 16.752 52.8236 16.752C54.2636 16.752 55.0956 15.904 55.1116 14.64V14.352H52.9676ZM58.6449 9.808H60.1809L60.3729 11.04C60.7889 10.352 61.4449 9.808 62.7889 9.808H63.1729V11.424H62.4049C60.8689 11.424 60.3729 12.624 60.3729 13.888V18H58.6449V9.808ZM63.9086 12.304C64.0846 10.704 65.4606 9.712 67.5246 9.712C69.7006 9.712 70.9486 10.752 70.9486 12.688V15.968C70.9486 16.384 71.1246 16.496 71.4766 16.496H71.8286V18H70.9166C69.7966 18 69.4126 17.504 69.4126 16.688C68.8686 17.52 68.0366 18.096 66.7086 18.096C64.9166 18.096 63.6686 17.216 63.6686 15.696C63.6686 14.016 64.8846 13.072 67.1726 13.072H69.2366V12.576C69.2366 11.664 68.5806 11.104 67.4446 11.104C66.4206 11.104 65.7326 11.584 65.6046 12.304H63.9086ZM67.0926 14.352C66.0206 14.352 65.4286 14.752 65.4286 15.584C65.4286 16.272 66.0046 16.752 66.9486 16.752C68.3886 16.752 69.2206 15.904 69.2366 14.64V14.352H67.0926ZM72.7699 9.808H74.2739L74.4659 10.88C74.9779 10.24 75.7619 9.712 77.0899 9.712C78.8979 9.712 80.3859 10.704 80.3859 13.44V18H78.6419V13.584C78.6419 12.032 77.9859 11.2 76.6899 11.2C75.3139 11.2 74.4979 12.208 74.4979 13.872V18H72.7699V9.808ZM82.5494 15.776V11.328H81.1254V9.808H82.5494V7.52H84.2934V9.808H86.2934V11.328H84.2934V15.6C84.2934 16.24 84.5174 16.48 85.1734 16.48H86.3894V18H84.7894C83.2214 18 82.5494 17.264 82.5494 15.776ZM91.2048 18.096C88.6288 18.096 87.0128 16.432 87.0128 13.92C87.0128 11.392 88.6288 9.712 91.0448 9.712C93.4128 9.712 94.9968 11.216 95.0448 13.616C95.0448 13.824 95.0288 14.048 94.9968 14.272H88.8207V14.384C88.8688 15.776 89.7488 16.688 91.1088 16.688C92.1648 16.688 92.9328 16.16 93.1728 15.248H94.9008C94.6128 16.864 93.2368 18.096 91.2048 18.096ZM93.2528 13.008C93.1088 11.792 92.2608 11.104 91.0608 11.104C89.9568 11.104 89.0128 11.84 88.8848 13.008H93.2528ZM100.33 18.096C97.7538 18.096 96.1378 16.432 96.1378 13.92C96.1378 11.392 97.7538 9.712 100.17 9.712C102.538 9.712 104.122 11.216 104.17 13.616C104.17 13.824 104.154 14.048 104.122 14.272H97.9457V14.384C97.9938 15.776 98.8738 16.688 100.234 16.688C101.29 16.688 102.058 16.16 102.298 15.248H104.026C103.738 16.864 102.362 18.096 100.33 18.096ZM102.378 13.008C102.234 11.792 101.386 11.104 100.186 11.104C99.0818 11.104 98.1378 11.84 98.0098 13.008H102.378ZM111.791 6.8H113.519V18H112.015L111.807 16.768C111.279 17.488 110.431 18.096 109.135 18.096C106.911 18.096 105.263 16.528 105.263 13.904C105.263 11.376 106.911 9.712 109.135 9.712C110.383 9.712 111.263 10.224 111.791 10.944V6.8ZM109.423 11.184C107.983 11.184 107.039 12.304 107.039 13.904C107.039 15.52 107.983 16.64 109.423 16.64C110.863 16.64 111.807 15.52 111.807 13.936C111.807 12.304 110.863 11.184 109.423 11.184ZM122.693 18.096C120.501 18.096 118.997 17.072 118.949 15.296H120.645C120.709 16.144 121.445 16.752 122.693 16.752C123.765 16.752 124.469 16.336 124.469 15.68C124.469 14.8 123.717 14.736 122.453 14.576C120.581 14.352 119.109 13.952 119.109 12.256C119.109 10.704 120.501 9.712 122.469 9.712C124.485 9.712 125.909 10.64 126.021 12.32H124.325C124.229 11.568 123.525 11.04 122.501 11.04C121.477 11.04 120.805 11.456 120.805 12.112C120.805 12.88 121.589 12.976 122.773 13.104C124.645 13.328 126.165 13.712 126.165 15.536C126.165 17.104 124.677 18.096 122.693 18.096ZM127.424 12.304C127.6 10.704 128.976 9.712 131.04 9.712C133.216 9.712 134.464 10.752 134.464 12.688V15.968C134.464 16.384 134.64 16.496 134.992 16.496H135.344V18H134.432C133.312 18 132.928 17.504 132.928 16.688C132.384 17.52 131.552 18.096 130.224 18.096C128.432 18.096 127.184 17.216 127.184 15.696C127.184 14.016 128.4 13.072 130.688 13.072H132.752V12.576C132.752 11.664 132.096 11.104 130.96 11.104C129.936 11.104 129.248 11.584 129.12 12.304H127.424ZM130.608 14.352C129.536 14.352 128.944 14.752 128.944 15.584C128.944 16.272 129.52 16.752 130.464 16.752C131.904 16.752 132.736 15.904 132.752 14.64V14.352H130.608ZM135.454 9.808H136.878V9.04C136.878 7.568 137.582 6.8 139.166 6.8H140.814V8.32H139.39C138.83 8.32 138.59 8.56 138.59 9.12V9.808H140.814V11.328H138.622V18H136.878V11.328H135.454V9.808ZM145.252 18.096C142.676 18.096 141.06 16.432 141.06 13.92C141.06 11.392 142.676 9.712 145.092 9.712C147.46 9.712 149.044 11.216 149.092 13.616C149.092 13.824 149.076 14.048 149.044 14.272H142.868V14.384C142.916 15.776 143.796 16.688 145.156 16.688C146.212 16.688 146.98 16.16 147.22 15.248H148.948C148.66 16.864 147.284 18.096 145.252 18.096ZM147.3 13.008C147.156 11.792 146.308 11.104 145.108 11.104C144.004 11.104 143.06 11.84 142.932 13.008H147.3ZM154.614 15.12C154.614 14.016 155.222 12.784 157.03 11.984C156.262 11.024 156.038 10.416 156.038 9.472C156.038 7.888 157.446 6.704 159.35 6.704C160.966 6.704 162.198 7.776 162.198 9.232C162.198 10.4 161.606 11.456 159.574 12.288L161.622 14.512L163.302 11.952H165.014L162.598 15.584L163.094 16.128C163.398 16.464 163.654 16.528 164.022 16.528H165.11V18H163.782C163.03 18 162.358 17.856 161.862 17.296L161.43 16.816C160.518 17.68 159.526 18.096 158.342 18.096C156.246 18.096 154.614 17.088 154.614 15.12ZM156.39 14.944C156.39 16.048 157.222 16.672 158.422 16.672C159.206 16.672 159.878 16.368 160.502 15.808L157.878 12.944L157.846 12.912C156.758 13.472 156.39 14.08 156.39 14.944ZM157.766 9.424C157.766 10.144 158.038 10.576 158.694 11.328C159.974 10.784 160.518 10.096 160.518 9.28C160.518 8.544 160.022 8.016 159.254 8.016C158.374 8.016 157.766 8.608 157.766 9.424ZM174.365 18.096C172.173 18.096 170.669 17.072 170.621 15.296H172.317C172.381 16.144 173.117 16.752 174.365 16.752C175.437 16.752 176.141 16.336 176.141 15.68C176.141 14.8 175.389 14.736 174.125 14.576C172.253 14.352 170.781 13.952 170.781 12.256C170.781 10.704 172.173 9.712 174.141 9.712C176.157 9.712 177.581 10.64 177.693 12.32H175.997C175.901 11.568 175.197 11.04 174.173 11.04C173.149 11.04 172.477 11.456 172.477 12.112C172.477 12.88 173.261 12.976 174.445 13.104C176.317 13.328 177.837 13.712 177.837 15.536C177.837 17.104 176.349 18.096 174.365 18.096ZM183.064 18.096C180.488 18.096 178.872 16.432 178.872 13.92C178.872 11.392 180.488 9.712 182.904 9.712C185.272 9.712 186.856 11.216 186.904 13.616C186.904 13.824 186.888 14.048 186.856 14.272H180.68V14.384C180.728 15.776 181.608 16.688 182.968 16.688C184.024 16.688 184.792 16.16 185.032 15.248H186.76C186.472 16.864 185.096 18.096 183.064 18.096ZM185.112 13.008C184.968 11.792 184.12 11.104 182.92 11.104C181.816 11.104 180.872 11.84 180.744 13.008H185.112ZM192.061 18.096C189.581 18.096 187.997 16.48 187.997 13.92C187.997 11.392 189.629 9.712 192.109 9.712C194.221 9.712 195.533 10.88 195.869 12.736H194.061C193.837 11.776 193.149 11.184 192.077 11.184C190.685 11.184 189.773 12.304 189.773 13.92C189.773 15.52 190.685 16.624 192.077 16.624C193.133 16.624 193.837 16.016 194.045 15.072H195.869C195.549 16.928 194.157 18.096 192.061 18.096ZM197.064 14.368V9.808H198.792V14.176C198.792 15.776 199.432 16.592 200.696 16.592C202.008 16.592 202.808 15.6 202.808 13.904V9.808H204.536V18H203.016L202.824 16.96C202.312 17.584 201.56 18.096 200.296 18.096C198.552 18.096 197.064 17.168 197.064 14.368ZM206.239 9.808H207.775L207.967 11.04C208.383 10.352 209.039 9.808 210.383 9.808H210.767V11.424H209.999C208.463 11.424 207.967 12.624 207.967 13.888V18H206.239V9.808ZM215.33 18.096C212.754 18.096 211.138 16.432 211.138 13.92C211.138 11.392 212.754 9.712 215.17 9.712C217.538 9.712 219.122 11.216 219.17 13.616C219.17 13.824 219.154 14.048 219.122 14.272H212.946V14.384C212.994 15.776 213.874 16.688 215.234 16.688C216.29 16.688 217.058 16.16 217.298 15.248H219.026C218.738 16.864 217.362 18.096 215.33 18.096ZM217.378 13.008C217.234 11.792 216.386 11.104 215.186 11.104C214.082 11.104 213.138 11.84 213.01 13.008H217.378ZM228.421 18.096C225.941 18.096 224.357 16.48 224.357 13.92C224.357 11.392 225.989 9.712 228.469 9.712C230.581 9.712 231.892 10.88 232.229 12.736H230.421C230.197 11.776 229.509 11.184 228.437 11.184C227.045 11.184 226.133 12.304 226.133 13.92C226.133 15.52 227.045 16.624 228.437 16.624C229.493 16.624 230.197 16.016 230.405 15.072H232.229C231.909 16.928 230.517 18.096 228.421 18.096ZM233.551 6.8H235.279V10.992C235.791 10.288 236.575 9.712 237.855 9.712C239.679 9.712 241.167 10.704 241.167 13.44V18H239.439V13.584C239.439 12.032 238.751 11.2 237.471 11.2C236.111 11.2 235.279 12.208 235.279 13.856V18H233.551V6.8ZM246.564 18.096C243.988 18.096 242.372 16.432 242.372 13.92C242.372 11.392 243.988 9.712 246.404 9.712C248.772 9.712 250.356 11.216 250.404 13.616C250.404 13.824 250.388 14.048 250.356 14.272H244.18V14.384C244.228 15.776 245.108 16.688 246.468 16.688C247.524 16.688 248.292 16.16 248.532 15.248H250.26C249.972 16.864 248.596 18.096 246.564 18.096ZM248.612 13.008C248.468 11.792 247.62 11.104 246.42 11.104C245.316 11.104 244.372 11.84 244.244 13.008H248.612ZM255.561 18.096C253.081 18.096 251.497 16.48 251.497 13.92C251.497 11.392 253.129 9.712 255.609 9.712C257.721 9.712 259.033 10.88 259.369 12.736H257.561C257.337 11.776 256.649 11.184 255.577 11.184C254.185 11.184 253.273 12.304 253.273 13.92C253.273 15.52 254.185 16.624 255.577 16.624C256.633 16.624 257.337 16.016 257.545 15.072H259.369C259.049 16.928 257.657 18.096 255.561 18.096ZM260.692 6.8H262.42V13.776L266.132 9.808H268.164L265.076 13.12L268.356 18H266.308L263.892 14.384L262.42 15.92V18H260.692V6.8ZM272.548 16.624C274.004 16.624 274.964 15.488 274.964 13.904C274.964 12.32 274.004 11.184 272.548 11.184C271.092 11.184 270.148 12.32 270.148 13.904C270.148 15.488 271.092 16.624 272.548 16.624ZM272.548 18.096C270.052 18.096 268.372 16.416 268.372 13.904C268.372 11.408 270.052 9.712 272.548 9.712C275.044 9.712 276.724 11.408 276.724 13.904C276.724 16.416 275.044 18.096 272.548 18.096ZM277.986 14.368V9.808H279.714V14.176C279.714 15.776 280.354 16.592 281.618 16.592C282.93 16.592 283.73 15.6 283.73 13.904V9.808H285.458V18H283.938L283.746 16.96C283.234 17.584 282.482 18.096 281.218 18.096C279.474 18.096 277.986 17.168 277.986 14.368ZM287.799 15.776V11.328H286.375V9.808H287.799V7.52H289.543V9.808H291.543V11.328H289.543V15.6C289.543 16.24 289.767 16.48 290.423 16.48H291.639V18H290.039C288.471 18 287.799 17.264 287.799 15.776Z" fill="#211F1F"/>
<path d="M112.145 41.5685H111.36V39.6823H112.145C112.744 39.6823 113.165 40.0631 113.165 40.6292C113.165 41.1877 112.744 41.5685 112.145 41.5685Z" fill="#211F1F"/>
<path d="M116.84 43.6408C116.234 43.6408 115.813 43.1308 115.813 42.3862C115.813 41.6415 116.234 41.1315 116.84 41.1315C117.44 41.1315 117.86 41.6415 117.86 42.3862C117.86 43.1308 117.44 43.6408 116.84 43.6408Z" fill="#211F1F"/>
<path d="M127.73 41.0662C128.191 41.0662 128.524 41.4469 128.556 41.9977H126.79C126.84 41.4392 127.228 41.0662 127.73 41.0662Z" fill="#211F1F"/>
<path d="M135.081 41.0662C135.542 41.0662 135.874 41.4469 135.907 41.9977H134.142C134.19 41.4392 134.579 41.0662 135.081 41.0662Z" fill="#211F1F"/>
<path d="M139.51 43.6162C138.918 43.6162 138.514 43.1146 138.514 42.3862C138.514 41.6577 138.918 41.1554 139.51 41.1554C139.793 41.1554 140.076 41.2769 140.31 41.52V43.2523C140.076 43.4946 139.793 43.6162 139.51 43.6162Z" fill="#211F1F"/>
<path d="M146.35 43.6162C146.067 43.6162 145.784 43.4946 145.541 43.2523V41.52C145.784 41.2769 146.067 41.1554 146.35 41.1554C146.934 41.1554 147.338 41.6577 147.338 42.3862C147.338 43.1146 146.934 43.6162 146.35 43.6162Z" fill="#211F1F"/>
<path d="M178.689 44.0469C178.177 44.0469 177.871 43.8623 177.659 43.6323L177.646 40.3869C177.874 40.1369 178.188 39.9538 178.689 39.9538C179.488 39.9538 180.038 40.8492 180.038 41.9915C180.038 43.1677 179.497 44.0469 178.689 44.0469Z" fill="#211F1F"/>
<path d="M186.062 39.8C186.598 39.8 187.167 40.2131 187.167 41.1962H184.909C184.909 40.2123 185.516 39.8 186.062 39.8Z" fill="#211F1F"/>
<path fill-rule="evenodd" clip-rule="evenodd" d="M190.654 52H108.346C105.797 52 103.73 49.9338 103.73 47.3846V36.6154C103.73 34.0662 105.797 32 108.346 32H190.654C193.203 32 195.269 34.0662 195.269 36.6154V47.3846C195.269 49.9338 193.203 52 190.654 52ZM112.29 38.84H110.324V44.41H111.36V42.41H112.29C113.424 42.41 114.234 41.6815 114.234 40.6292C114.234 39.5769 113.424 38.84 112.29 38.84ZM116.84 40.2654C115.618 40.2654 114.752 41.1392 114.752 42.3862C114.752 43.6246 115.618 44.5069 116.84 44.5069C118.063 44.5069 118.921 43.6246 118.921 42.3862C118.921 41.1392 118.063 40.2654 116.84 40.2654ZM124.45 40.3623L123.633 43.1146L122.815 40.3623H121.877L121.059 43.1146L120.241 40.3623H119.205L120.597 44.41H121.528L122.346 41.6577L123.172 44.41H124.103L125.487 40.3623H124.45ZM127.77 40.2654C126.613 40.2654 125.771 41.1315 125.771 42.3538C125.771 43.6162 126.629 44.5069 127.851 44.5069C128.304 44.5069 128.766 44.4015 129.227 44.1915V43.3246C128.807 43.5677 128.394 43.7054 128.021 43.7054C127.341 43.7054 126.856 43.2846 126.79 42.6692H129.535C129.551 42.5315 129.551 42.4023 129.551 42.2885C129.551 41.0992 128.83 40.2654 127.77 40.2654ZM132.749 40.3054C132.636 40.2731 132.523 40.2654 132.409 40.2654C132.061 40.2654 131.705 40.4431 131.414 40.7669V40.3623H130.377V44.41H131.414V41.7062C131.68 41.3662 132.045 41.18 132.385 41.18C132.507 41.18 132.636 41.1962 132.749 41.2285V40.3054ZM135.121 40.2654C133.964 40.2654 133.122 41.1315 133.122 42.3538C133.122 43.6162 133.98 44.5069 135.202 44.5069C135.656 44.5069 136.117 44.4015 136.578 44.1915V43.3246C136.157 43.5677 135.745 43.7054 135.372 43.7054C134.693 43.7054 134.207 43.2846 134.142 42.6692H136.886C136.902 42.5315 136.902 42.4023 136.902 42.2885C136.902 41.0992 136.182 40.2654 135.121 40.2654ZM141.355 38.5892H140.31V40.6377C139.995 40.3946 139.639 40.2654 139.283 40.2654C138.206 40.2654 137.454 41.1392 137.454 42.3862C137.454 43.6323 138.206 44.5069 139.283 44.5069C139.639 44.5069 139.995 44.3777 140.31 44.1262V44.41H141.355V38.5892ZM146.569 40.2654C146.221 40.2654 145.864 40.3946 145.541 40.6377V38.5892H144.505V44.41H145.541V44.1262C145.864 44.3777 146.221 44.5069 146.569 44.5069C147.654 44.5069 148.398 43.6323 148.398 42.3862C148.398 41.1392 147.654 40.2654 146.569 40.2654ZM151.661 40.3623L150.682 43.0177L149.71 40.3623H148.65L150.196 44.2638L149.419 46.1823H150.423L152.722 40.3623H151.661ZM159.968 39.9138C160.632 39.9138 161.476 40.1169 162.14 40.4762V38.4185C161.417 38.13 160.694 38.0192 159.97 38.0192C158.198 38.0192 157.017 38.9446 157.017 40.4908C157.017 42.9085 160.337 42.5162 160.337 43.5585C160.337 43.9623 159.987 44.0931 159.5 44.0931C158.776 44.0931 157.842 43.7938 157.109 43.3954V45.4808C157.921 45.83 158.744 45.9762 159.497 45.9762C161.314 45.9762 162.565 45.0792 162.565 43.5069C162.565 40.9023 159.226 41.37 159.226 40.3869C159.226 40.0462 159.51 39.9138 159.968 39.9138ZM166.946 38.1646H165.287L165.286 36.2677L163.154 36.7215L163.144 43.7285C163.144 45.0215 164.117 45.9762 165.413 45.9762C166.127 45.9762 166.654 45.8469 166.945 45.6869V43.9092C166.666 44.0208 165.287 44.4215 165.287 43.1346V40.0269H166.946V38.1646ZM171.634 38.1654C171.344 38.0608 170.323 37.87 169.811 38.81L169.674 38.1646H167.786V45.82H169.969V40.63C170.485 39.9523 171.357 40.0831 171.634 40.1731V38.1654ZM174.499 35.2538L172.307 35.72V37.4992L174.499 37.0331V35.2538ZM174.499 38.1646H172.307V45.82H174.499V38.1646ZM179.211 38.0192C178.355 38.0192 177.802 38.4223 177.5 38.7038L177.387 38.1646H175.464L175.464 48.36L177.648 47.8954L177.653 45.4238C177.967 45.6538 178.434 45.9762 179.198 45.9762C180.76 45.9762 182.19 44.7192 182.19 41.9438C182.19 39.4008 180.745 38.0192 179.211 38.0192ZM186.076 38.0192C183.998 38.0192 182.734 39.7854 182.734 42.01C182.734 44.6438 184.224 45.9762 186.352 45.9762C187.396 45.9762 188.18 45.7392 188.773 45.41V43.6508C188.177 43.9508 187.494 44.1338 186.627 44.1338C185.776 44.1338 185.026 43.8323 184.928 42.8085H189.204C189.214 42.6908 189.234 42.2331 189.234 42.0215C189.234 39.7846 188.15 38.0192 186.076 38.0192Z" fill="#211F1F"/>
</svg>
