<svg width="341" height="78" viewBox="0 0 341 78" fill="none" xmlns="http://www.w3.org/2000/svg">
<rect width="341" height="77.8489" fill="black"/>
<path fill-rule="evenodd" clip-rule="evenodd" d="M37.8283 43.7684L43.7766 26.6417H48.1789L54.1272 43.7684L59.8946 26.7129H65.5085L56.3256 51.9206H51.8575L45.9092 35.3147L39.9445 51.9206H35.4764L26.3154 26.7129H32.039L37.8283 43.7684ZM89.2086 36.7839H104.005V26.7129H109.383V51.7781H104.005V41.5426H89.2086V51.7781H83.8797V26.7129H89.2086V36.7839ZM135.424 51.7781H130.101V26.7129H135.424V51.7781ZM179.705 35.1721V35.2434C179.705 40.9834 174.826 43.9164 169.091 43.9164H161.52V51.7781H156.197V26.7129H169.607C175.719 26.7129 179.711 30.0681 179.711 35.1721H179.705ZM174.305 35.2653C174.305 32.738 172.436 31.351 169.239 31.351H161.52V39.2619H169.256C172.463 39.2619 174.322 37.5789 174.322 35.3366L174.311 35.2653H174.305ZM199.902 44.3769C201.991 46.3232 204.787 47.4251 207.709 47.4635C210.379 47.4635 211.799 46.2793 211.799 44.832V44.7607C211.799 43.3737 211.135 42.4965 206.371 41.4494C200.944 40.2652 197.567 38.6041 197.567 33.8235V33.7522C197.567 29.3115 201.47 26.3182 206.689 26.3182C210.154 26.2524 213.526 27.3598 216.206 29.4486L216.47 29.6514L213.635 33.5549L213.334 33.341C211.448 31.8773 209.107 31.033 206.673 30.9453C204.178 30.9453 202.928 32.1295 202.928 33.4123V33.4836C202.928 34.9912 203.701 35.7752 208.641 36.8881C214.068 38.1436 217.16 40.0678 217.16 44.3824V44.4537C217.16 49.2836 213.131 52.0796 207.643 52.0796C203.597 52.1125 199.683 50.6926 196.689 48.1049L196.426 47.8801L199.606 44.1796L199.891 44.3715L199.902 44.3769ZM287.016 43.7246L292.964 26.5978H297.367L303.304 43.7246L309.082 26.6691H314.685L305.519 51.8768H301.051L295.086 35.2708L289.138 51.8768H284.67L275.492 26.6636H281.243L287.016 43.7191V43.7246ZM234.841 51.7781L246.414 26.5594H251.129L262.702 51.7781H257.039L248.695 33.0943L240.351 51.7781H234.835H234.841Z" fill="white"/>
</svg>
